<svg xmlns="http://www.w3.org/2000/svg" width="1200" height="760" viewBox="0 0 1200 760" role="img" aria-labelledby="title desc">
  <title id="title">같은 표식이 만든 거대한 무리 전황판</title><desc id="desc">노란 천은 소속을 확인하게 했지만 개인의 여러 이유를 한 집단의 얼굴로 덮었다.</desc>
  <defs><linearGradient id="bg" x1="0" y1="0" x2="1" y2="1"><stop stop-color="#17211d"/><stop offset="1" stop-color="#29372f"/></linearGradient><filter id="shadow"><feDropShadow dx="0" dy="12" stdDeviation="14" flood-opacity=".28"/></filter></defs>
  <rect width="1200" height="760" rx="48" fill="url(#bg)"/><path d="M70 112H1130M70 638H1130" stroke="#d9c8a1" stroke-opacity=".22"/>
  <text x="70" y="76" fill="#d9c8a1" font-family="sans-serif" font-size="26" font-weight="700">DAY 009 · 184년 봄 · 본능의 눈</text>
  <text x="70" y="160" fill="#fffaf0" font-family="serif" font-size="58" font-weight="700">같은 표식이 만든 거대한 무리</text>
  <path d="M230 360H490M710 360H970" stroke="#b35e31" stroke-width="12" stroke-linecap="round"/><path d="M465 335l35 25-35 25M945 335l35 25-35 25" fill="none" stroke="#b35e31" stroke-width="12" stroke-linecap="round" stroke-linejoin="round"/>
  <g filter="url(#shadow)"><circle cx="160" cy="360" r="110" fill="#f2ead8"/><text x="160" y="350" text-anchor="middle" fill="#17211d" font-family="sans-serif" font-size="31" font-weight="800">황건군</text><text x="160" y="392" text-anchor="middle" fill="#4b564f" font-family="sans-serif" font-size="22">여러 전장</text></g><g filter="url(#shadow)"><circle cx="600" cy="360" r="110" fill="#b35e31"/><text x="600" y="350" text-anchor="middle" fill="#fff" font-family="sans-serif" font-size="31" font-weight="800">후한군</text><text x="600" y="392" text-anchor="middle" fill="#fff" font-family="sans-serif" font-size="22">마을과 관청</text></g><g filter="url(#shadow)"><circle cx="1040" cy="360" r="110" fill="#f2ead8"/><text x="1040" y="350" text-anchor="middle" fill="#17211d" font-family="sans-serif" font-size="31" font-weight="800">주민</text><text x="1040" y="392" text-anchor="middle" fill="#4b564f" font-family="sans-serif" font-size="22">여러 전장</text></g>
  <rect x="70" y="535" width="1060" height="78" rx="22" fill="#fffaf0" fill-opacity=".1"/><text x="100" y="584" fill="#fffaf0" font-family="sans-serif" font-size="28">노란 천은 소속을 확인하게 했지만 개인의 여러 이유를 한 집단의 얼굴로 덮었다.</text>
  <text x="70" y="692" fill="#d9c8a1" font-family="sans-serif" font-size="21">역사적 공간을 이해하기 위한 편집 도식 · 실제 지도 축척이 아닙니다</text>
</svg>